<svg width="234" height="234" viewBox="0 0 234 234" fill="none" xmlns="http://www.w3.org/2000/svg">
<path fill-rule="evenodd" clip-rule="evenodd" d="M233.936 117.39L117.338 0.792358L0.739624 117.39L117.338 233.988L233.936 117.39ZM140.15 75.4934L161.44 73.4665L147.246 59.278H133.053L140.15 75.4934ZM103.652 59.2783L95.5745 78.4547L59.0426 75.4937L65.1256 100.83L108.72 117.046L114.804 117.046V59.2783H103.652ZM88.4446 120.086L97.5691 118.059L90.4723 128.194V159.611L66.1405 139.342V104.884L77.2926 108.938L88.4446 120.086ZM145.219 120.086L136.094 118.059L143.191 128.194V159.611L167.523 139.342V104.884L156.371 108.938L145.219 120.086ZM101.501 117.91L93.4141 130.096V175.794L99.4795 184.933L106.556 192.042H126.774L133.85 184.933L139.915 175.794V130.096L131.828 117.91L126.774 120.956H106.556L101.501 117.91ZM143.191 178.867L156.371 165.692V152.517L143.191 163.665V178.867ZM77.2926 165.692L90.4723 178.867V163.665L77.2926 152.517V165.692ZM118.859 117.046V59.2783H130.011L138.089 78.4566L175.633 75.4937L169.55 100.83L125.956 117.046H118.859ZM72.2235 73.4665L93.5138 75.4934L100.611 59.278H86.417L72.2235 73.4665Z" fill="url(#paint0_linear_624_140867)"/>
<defs>
<linearGradient id="paint0_linear_624_140867" x1="458" y1="-127.142" x2="741.882" y2="329.744" gradientUnits="userSpaceOnUse">
<stop stop-color="#00E08F"/>
<stop offset="1" stop-color="#00A3FF"/>
</linearGradient>
</defs>
</svg>
